# WaveFront *.obj file (generated by Autodesk ATF)
#max 2
mtllib board6.mtl

g å®ä½“1

v 0.000000 -1000.000000 0.000000
v 0.000000 -1000.000000 100.000000
v 0.000000 1000.000000 0.000000
v 0.000000 1000.000000 100.000000
v 2000.000000 -1000.000000 0.000000
v 2000.000000 -1000.000000 100.000000
v 2000.000000 1000.000000 0.000000
v 2000.000000 1000.000000 100.000000
v 4000.000000 -1013.000031 2100.000000
v 4000.000000 -1013.000031 2200.000000
v 4000.000000 986.999969 2100.000000
v 4000.000000 986.999969 2200.000000
v 10000.000000 -1013.000031 2100.000000
v 10000.000000 -1013.000031 2200.000000
v 10000.000000 986.999969 2100.000000
v 10000.000000 986.999969 2200.000000
vt 0.000000 0.000000 0.000000
vt 200.000000 0.000000 0.000000
vt 200.000000 10.000000 0.000000
vt 0.000000 10.000000 0.000000
vt 100.000000 100.000000 0.000000
vt -100.000000 100.000000 0.000000
vt -100.000000 -100.000000 0.000000
vt 100.000000 -100.000000 0.000000
vt 0.000000 0.000000 0.000000
vt 200.000000 0.000000 0.000000
vt 200.000000 10.000000 0.000000
vt 0.000000 10.000000 0.000000
vt 100.000000 100.000000 0.000000
vt -100.000000 100.000000 0.000000
vt -100.000000 -100.000000 0.000000
vt 100.000000 -100.000000 0.000000
vt 0.000000 0.000000 0.000000
vt 200.000000 0.000000 0.000000
vt 200.000000 10.000000 0.000000
vt 0.000000 10.000000 0.000000
vt 0.000000 0.000000 0.000000
vt -10.000000 0.000000 0.000000
vt 200.000000 -200.004227 0.000000
vt 210.000000 -200.004227 0.000000
vt 0.000000 0.000000 0.000000
vt 0.000000 -200.000000 0.000000
vt 290.000000 -198.699997 0.000000
vt 290.000000 1.300000 0.000000
vt 0.000000 0.000000 0.000000
vt 0.000000 200.000000 0.000000
vt -290.000000 201.300003 0.000000
vt -290.000000 1.300000 0.000000
vt 0.000000 0.000000 0.000000
vt -10.000000 0.000000 0.000000
vt -220.000000 -200.004227 0.000000
vt -210.000000 -200.004227 0.000000
vt -5.000000 -100.000000 0.000000
vt 5.000000 -100.000000 0.000000
vt 5.000000 100.000000 0.000000
vt -5.000000 100.000000 0.000000
vt 10.000000 0.000000 0.000000
vt -0.000000 0.000000 0.000000
vt -0.000000 -600.000000 0.000000
vt 10.000000 -600.000000 0.000000
vt -0.000000 200.000000 0.000000
vt -0.000000 0.000000 0.000000
vt 600.000000 0.000000 0.000000
vt 600.000000 200.000000 0.000000
vt 10.000000 0.000000 0.000000
vt -0.000000 0.000000 0.000000
vt -0.000000 -600.000000 0.000000
vt 10.000000 -600.000000 0.000000
vt -0.000000 -200.000000 0.000000
vt -0.000000 0.000000 0.000000
vt -600.000000 0.000000 0.000000
vt -600.000000 -200.000000 0.000000
vn 0.000000 -0.100000 0.000000
vn 0.000000 -0.100000 0.000000
vn 0.000000 -0.100000 0.000000
vn 0.000000 -0.100000 0.000000
vn 0.000000 0.000000 -0.100000
vn 0.000000 0.000000 -0.100000
vn 0.000000 0.000000 -0.100000
vn 0.000000 0.000000 -0.100000
vn -0.100000 0.000000 0.000000
vn -0.100000 0.000000 0.000000
vn -0.100000 0.000000 0.000000
vn -0.100000 0.000000 0.000000
vn 0.000000 0.000000 0.100000
vn 0.000000 0.000000 0.100000
vn 0.000000 0.000000 0.100000
vn 0.000000 0.000000 0.100000
vn 0.000000 0.100000 0.000000
vn 0.000000 0.100000 0.000000
vn 0.000000 0.100000 0.000000
vn 0.000000 0.100000 0.000000
vn -0.000650 -0.099998 0.000000
vn -0.000650 -0.099998 0.000000
vn -0.000650 -0.099998 0.000000
vn -0.000650 -0.099998 0.000000
vn 0.072414 0.000000 -0.068966
vn 0.072414 0.000000 -0.068966
vn 0.072414 0.000000 -0.068966
vn 0.072414 0.000000 -0.068966
vn -0.072414 0.000000 0.068966
vn -0.072414 0.000000 0.068966
vn -0.072414 0.000000 0.068966
vn -0.072414 0.000000 0.068966
vn 0.000650 0.099998 0.000000
vn 0.000650 0.099998 0.000000
vn 0.000650 0.099998 0.000000
vn 0.000650 0.099998 0.000000
vn 0.100000 0.000000 0.000000
vn 0.100000 0.000000 0.000000
vn 0.100000 0.000000 0.000000
vn 0.100000 0.000000 0.000000
vn 0.000000 -0.100000 0.000000
vn 0.000000 -0.100000 0.000000
vn 0.000000 -0.100000 0.000000
vn 0.000000 -0.100000 0.000000
vn 0.000000 0.000000 -0.100000
vn 0.000000 0.000000 -0.100000
vn 0.000000 0.000000 -0.100000
vn 0.000000 0.000000 -0.100000
vn 0.000000 0.100000 0.000000
vn 0.000000 0.100000 0.000000
vn 0.000000 0.100000 0.000000
vn 0.000000 0.100000 0.000000
vn 0.000000 0.000000 0.100000
vn 0.000000 0.000000 0.100000
vn 0.000000 0.000000 0.100000
vn 0.000000 0.000000 0.100000
usemtl 191,191,191
f 1/1/1 5/2/2 2/4/4
f 2/4/4 5/2/2 6/3/3
f 3/5/5 7/6/6 1/8/8
f 1/8/8 7/6/6 5/7/7
f 3/9/9 1/10/10 4/12/12
f 4/12/12 1/10/10 2/11/11
f 8/13/13 4/14/14 6/16/16
f 6/16/16 4/14/14 2/15/15
f 7/17/17 3/18/18 8/20/20
f 8/20/20 3/18/18 4/19/19
f 10/22/22 6/23/23 9/21/21
f 9/21/21 6/23/23 5/24/24
f 9/26/26 5/27/27 11/25/25
f 11/25/25 5/27/27 7/28/28
f 10/29/29 12/30/30 6/32/32
f 6/32/32 12/30/30 8/31/31
f 12/33/33 11/34/34 8/36/36
f 8/36/36 11/34/34 7/35/35
f 14/37/37 13/38/38 16/40/40
f 16/40/40 13/38/38 15/39/39
f 13/41/41 14/42/42 9/44/44
f 9/44/44 14/42/42 10/43/43
f 13/46/46 9/47/47 15/45/45
f 15/45/45 9/47/47 11/48/48
f 16/49/49 15/50/50 12/52/52
f 12/52/52 15/50/50 11/51/51
f 16/54/54 12/55/55 14/53/53
f 14/53/53 12/55/55 10/56/56

# 16 vertices
# 56 texture params
# 56 normals
# 28 facets

# 1 groups
