# WaveFront *.obj file (generated by Autodesk ATF)
#max 2
mtllib board3.mtl

g å®ä½“1

v 0.000000 -50.000000 0.000000
v 0.000000 -50.000000 100.000000
v 0.000000 50.000000 0.000000
v 0.000000 50.000000 100.000000
v 586.888962 -500.000000 100.000000
v 586.888962 -500.000000 200.000000
v 586.888962 -50.000000 100.000000
v 586.888962 50.000000 100.000000
v 586.888962 500.000000 100.000000
v 586.888962 500.000000 200.000000
v 10000.000000 -50.000000 0.000000
v 10000.000000 -50.000000 100.000000
v 10000.000000 50.000000 0.000000
v 10000.000000 50.000000 100.000000
v 10586.888428 -500.000000 100.000000
v 10586.888428 -500.000000 200.000000
v 10586.888428 500.000000 100.000000
v 10586.888428 500.000000 200.000000
vt 0.000000 0.000000 0.000000
vt 10.000000 0.000000 0.000000
vt 10.000000 10.000000 0.000000
vt 0.000000 10.000000 0.000000
vt 0.000000 0.000000 0.000000
vt 10.000000 0.000000 0.000000
vt 10.000000 10.000000 0.000000
vt 0.000000 10.000000 0.000000
vt 0.000000 0.000000 0.000000
vt 1000.000000 0.000000 0.000000
vt 1000.000000 10.000000 0.000000
vt 58.688896 10.000000 0.000000
vt 0.000000 10.000000 0.000000
vt 0.000000 0.000000 0.000000
vt 1000.000000 0.000000 0.000000
vt 1000.000000 10.000000 0.000000
vt 941.311096 10.000000 0.000000
vt 0.000000 10.000000 0.000000
vt -441.311096 -5.000000 0.000000
vt -441.311096 5.000000 0.000000
vt -500.000000 5.000000 0.000000
vt -500.000000 -5.000000 0.000000
vt -500.000000 -5.000000 0.000000
vt 500.000000 -5.000000 0.000000
vt 500.000000 5.000000 0.000000
vt -500.000000 5.000000 0.000000
vt 0.000000 0.000000 0.000000
vt 1000.000000 0.000000 0.000000
vt 1000.000000 10.000000 0.000000
vt 0.000000 10.000000 0.000000
vt 0.000000 0.000000 0.000000
vt 100.000000 0.000000 0.000000
vt 100.000000 10.000000 0.000000
vt 0.000000 10.000000 0.000000
vt 0.000000 0.000000 0.000000
vt 1000.000000 0.000000 0.000000
vt 1000.000000 10.000000 0.000000
vt 0.000000 10.000000 0.000000
vt 0.000000 0.000000 0.000000
vt 45.000000 0.000000 0.000000
vt 55.000000 0.000000 0.000000
vt 100.000000 0.000000 0.000000
vt 100.000000 10.000000 0.000000
vt 0.000000 10.000000 0.000000
vt -500.000000 50.000000 0.000000
vt -500.000000 -50.000000 0.000000
vt 500.000000 -50.000000 0.000000
vt 500.000000 50.000000 0.000000
vt -441.311096 5.000000 0.000000
vt 500.000000 5.000000 0.000000
vt 500.000000 50.000000 0.000000
vt -500.000000 50.000000 0.000000
vt -500.000000 -50.000000 0.000000
vt 500.000000 -50.000000 0.000000
vt 500.000000 -5.000000 0.000000
vt -441.311096 -5.000000 0.000000
vn -0.100000 0.000000 0.000000
vn -0.100000 0.000000 0.000000
vn -0.100000 0.000000 0.000000
vn -0.100000 0.000000 0.000000
vn 0.100000 0.000000 0.000000
vn 0.100000 0.000000 0.000000
vn 0.100000 0.000000 0.000000
vn 0.100000 0.000000 0.000000
vn 0.000000 -0.100000 0.000000
vn 0.000000 -0.100000 0.000000
vn 0.000000 -0.100000 0.000000
vn 0.000000 -0.100000 0.000000
vn 0.000000 -0.100000 0.000000
vn 0.000000 0.100000 0.000000
vn 0.000000 0.100000 0.000000
vn 0.000000 0.100000 0.000000
vn 0.000000 0.100000 0.000000
vn 0.000000 0.100000 0.000000
vn 0.000000 0.000000 0.100000
vn 0.000000 0.000000 0.100000
vn 0.000000 0.000000 0.100000
vn 0.000000 0.000000 0.100000
vn 0.000000 0.000000 -0.100000
vn 0.000000 0.000000 -0.100000
vn 0.000000 0.000000 -0.100000
vn 0.000000 0.000000 -0.100000
vn 0.000000 0.100000 0.000000
vn 0.000000 0.100000 0.000000
vn 0.000000 0.100000 0.000000
vn 0.000000 0.100000 0.000000
vn 0.100000 0.000000 0.000000
vn 0.100000 0.000000 0.000000
vn 0.100000 0.000000 0.000000
vn 0.100000 0.000000 0.000000
vn 0.000000 -0.100000 0.000000
vn 0.000000 -0.100000 0.000000
vn 0.000000 -0.100000 0.000000
vn 0.000000 -0.100000 0.000000
vn -0.100000 0.000000 0.000000
vn -0.100000 0.000000 0.000000
vn -0.100000 0.000000 0.000000
vn -0.100000 0.000000 0.000000
vn -0.100000 0.000000 0.000000
vn -0.100000 0.000000 0.000000
vn 0.000000 0.000000 0.100000
vn 0.000000 0.000000 0.100000
vn 0.000000 0.000000 0.100000
vn 0.000000 0.000000 0.100000
vn 0.000000 0.000000 -0.100000
vn 0.000000 0.000000 -0.100000
vn 0.000000 0.000000 -0.100000
vn 0.000000 0.000000 -0.100000
vn 0.000000 0.000000 -0.100000
vn 0.000000 0.000000 -0.100000
vn 0.000000 0.000000 -0.100000
vn 0.000000 0.000000 -0.100000
usemtl 191,191,191
f 3/1/1 1/2/2 4/4/4
f 4/4/4 1/2/2 2/3/3
f 11/5/5 13/6/6 12/8/8
f 12/8/8 13/6/6 14/7/7
f 2/13/13 1/9/9 7/12/12
f 7/12/12 1/9/9 11/10/10
f 7/12/12 11/10/10 12/11/11
f 14/18/18 13/14/14 8/17/17
f 8/17/17 13/14/14 3/15/15
f 8/17/17 3/15/15 4/16/16
f 8/20/20 4/21/21 7/19/19
f 7/19/19 4/21/21 2/22/22
f 11/23/23 1/24/24 13/26/26
f 13/26/26 1/24/24 3/25/25
f 17/27/27 9/28/28 18/30/30
f 18/30/30 9/28/28 10/29/29
f 15/31/31 17/32/32 16/34/34
f 16/34/34 17/32/32 18/33/33
f 5/35/35 15/36/36 6/38/38
f 6/38/38 15/36/36 16/37/37
f 9/39/39 8/40/40 10/44/44
f 10/44/44 8/40/40 7/41/41
f 10/44/44 7/41/41 6/43/43
f 6/43/43 7/41/41 5/42/42
f 6/46/46 16/47/47 10/45/45
f 10/45/45 16/47/47 18/48/48
f 8/50/50 9/51/51 14/49/49
f 14/49/49 9/51/51 17/52/52
f 14/49/49 17/52/52 15/53/53
f 14/49/49 15/53/53 12/56/56
f 12/56/56 15/53/53 5/54/54
f 12/56/56 5/54/54 7/55/55

# 18 vertices
# 56 texture params
# 56 normals
# 32 facets

# 1 groups
