# WaveFront *.obj file (generated by Autodesk ATF)
#max 2
mtllib board5.mtl

g å®ä½“1

v 0.000000 -100.000000 0.000000
v 0.000000 -100.000000 100.000000
v 0.000000 100.000000 0.000000
v 0.000000 100.000000 100.000000
v 400.000000 -200.000000 0.000000
v 400.000000 -200.000000 100.000000
v 400.000000 -100.000000 0.000000
v 400.000000 -100.000000 100.000000
v 400.000000 100.000000 0.000000
v 400.000000 100.000000 100.000000
v 400.000000 200.000000 0.000000
v 400.000000 200.000000 100.000000
v 2400.000000 -400.000000 492.999992
v 2400.000000 -400.000000 643.000031
v 2400.000000 400.000000 492.999992
v 2400.000000 400.000000 643.000031
v 4400.000000 -1000.000000 1111.999969
v 4400.000000 -1000.000000 1411.999969
v 4400.000000 1000.000000 1111.999969
v 4400.000000 1000.000000 1411.999969
vt 5.000000 -10.000000 0.000000
vt -5.000000 -10.000000 0.000000
vt -5.000000 -20.000000 0.000000
vt 5.000000 -20.000000 0.000000
vt 0.000000 0.000000 0.000000
vt 0.000000 -10.000000 0.000000
vt 0.000000 -30.000000 0.000000
vt 0.000000 -40.000000 0.000000
vt 207.240173 -60.000000 0.000000
vt 207.240173 20.000000 0.000000
vt -5.000000 10.000000 0.000000
vt 5.000000 10.000000 0.000000
vt 5.000000 20.000000 0.000000
vt -5.000000 20.000000 0.000000
vt 0.000000 0.000000 0.000000
vt 10.000000 0.000000 0.000000
vt -39.299999 200.997513 0.000000
vt -54.299999 200.997513 0.000000
vt 0.000000 0.000000 0.000000
vt 10.000000 0.000000 0.000000
vt 64.300003 200.997513 0.000000
vt 49.299999 200.997513 0.000000
vt 0.000000 0.000000 0.000000
vt 0.000000 10.000000 0.000000
vt 0.000000 30.000000 0.000000
vt 0.000000 40.000000 0.000000
vt -205.986633 60.000000 0.000000
vt -205.986633 -20.000000 0.000000
vt 15.000000 -100.000000 0.000000
vt 15.000000 100.000000 0.000000
vt -15.000000 100.000000 0.000000
vt -15.000000 -100.000000 0.000000
vt 0.000000 0.000000 0.000000
vt 40.000000 0.000000 0.000000
vt 40.000000 10.000000 0.000000
vt 0.000000 10.000000 0.000000
vt 0.000000 0.000000 0.000000
vt 40.000000 0.000000 0.000000
vt 40.000000 10.000000 0.000000
vt 0.000000 10.000000 0.000000
vt 0.000000 0.000000 0.000000
vt 20.000000 0.000000 0.000000
vt 20.000000 10.000000 0.000000
vt 0.000000 10.000000 0.000000
vt -20.000000 10.000000 0.000000
vt -20.000000 -10.000000 0.000000
vt 20.000000 -10.000000 0.000000
vt 20.000000 10.000000 0.000000
vt 20.000000 -10.000000 0.000000
vt 20.000000 10.000000 0.000000
vt -20.000000 10.000000 0.000000
vt -20.000000 -10.000000 0.000000
vt -0.000000 -80.000000 0.000000
vt -0.000000 0.000000 0.000000
vt -209.360001 60.000000 0.000000
vt -209.360001 -140.000000 0.000000
vt -15.000000 0.000000 0.000000
vt -0.000000 0.000000 0.000000
vt -61.900002 208.806137 0.000000
vt -91.900002 208.806137 0.000000
vt -0.000000 80.000000 0.000000
vt -0.000000 0.000000 0.000000
vt 214.274612 -60.000000 0.000000
vt 214.274612 140.000000 0.000000
vt -15.000000 0.000000 0.000000
vt -0.000000 0.000000 0.000000
vt 76.900002 208.806137 0.000000
vt 46.900002 208.806137 0.000000
vn -0.100000 0.000000 0.000000
vn -0.100000 0.000000 0.000000
vn -0.100000 0.000000 0.000000
vn -0.100000 0.000000 0.000000
vn -0.026201 0.000000 0.096506
vn -0.026201 0.000000 0.096506
vn -0.026201 0.000000 0.096506
vn -0.026201 0.000000 0.096506
vn -0.026201 0.000000 0.096506
vn -0.026201 0.000000 0.096506
vn -0.100000 0.000000 0.000000
vn -0.100000 0.000000 0.000000
vn -0.100000 0.000000 0.000000
vn -0.100000 0.000000 0.000000
vn -0.009950 -0.099504 0.000000
vn -0.009950 -0.099504 0.000000
vn -0.009950 -0.099504 0.000000
vn -0.009950 -0.099504 0.000000
vn -0.009950 0.099504 0.000000
vn -0.009950 0.099504 0.000000
vn -0.009950 0.099504 0.000000
vn -0.009950 0.099504 0.000000
vn 0.023934 0.000000 -0.097094
vn 0.023934 0.000000 -0.097094
vn 0.023934 0.000000 -0.097094
vn 0.023934 0.000000 -0.097094
vn 0.023934 0.000000 -0.097094
vn 0.023934 0.000000 -0.097094
vn 0.100000 0.000000 0.000000
vn 0.100000 0.000000 0.000000
vn 0.100000 0.000000 0.000000
vn 0.100000 0.000000 0.000000
vn 0.000000 0.100000 0.000000
vn 0.000000 0.100000 0.000000
vn 0.000000 0.100000 0.000000
vn 0.000000 0.100000 0.000000
vn 0.000000 -0.100000 0.000000
vn 0.000000 -0.100000 0.000000
vn 0.000000 -0.100000 0.000000
vn 0.000000 -0.100000 0.000000
vn -0.100000 0.000000 0.000000
vn -0.100000 0.000000 0.000000
vn -0.100000 0.000000 0.000000
vn -0.100000 0.000000 0.000000
vn 0.000000 0.000000 0.100000
vn 0.000000 0.000000 0.100000
vn 0.000000 0.000000 0.100000
vn 0.000000 0.000000 0.100000
vn 0.000000 0.000000 -0.100000
vn 0.000000 0.000000 -0.100000
vn 0.000000 0.000000 -0.100000
vn 0.000000 0.000000 -0.100000
vn 0.029566 0.000000 -0.095529
vn 0.029566 0.000000 -0.095529
vn 0.029566 0.000000 -0.095529
vn 0.029566 0.000000 -0.095529
vn -0.028735 -0.095783 0.000000
vn -0.028735 -0.095783 0.000000
vn -0.028735 -0.095783 0.000000
vn -0.028735 -0.095783 0.000000
vn -0.035889 0.000000 0.093338
vn -0.035889 0.000000 0.093338
vn -0.035889 0.000000 0.093338
vn -0.035889 0.000000 0.093338
vn -0.028735 0.095783 0.000000
vn -0.028735 0.095783 0.000000
vn -0.028735 0.095783 0.000000
vn -0.028735 0.095783 0.000000
usemtl 191,191,191
f 8/1/1 7/2/2 6/4/4
f 6/4/4 7/2/2 5/3/3
f 12/5/5 10/6/6 16/10/10
f 16/10/10 10/6/6 14/9/9
f 14/9/9 10/6/6 8/7/7
f 14/9/9 8/7/7 6/8/8
f 9/11/11 10/12/12 11/14/14
f 11/14/14 10/12/12 12/13/13
f 5/16/16 13/17/17 6/15/15
f 6/15/15 13/17/17 14/18/18
f 11/19/19 12/20/20 15/22/22
f 15/22/22 12/20/20 16/21/21
f 5/23/23 7/24/24 13/28/28
f 13/28/28 7/24/24 9/25/25
f 13/28/28 9/25/25 15/27/27
f 15/27/27 9/25/25 11/26/26
f 19/30/30 20/31/31 17/29/29
f 17/29/29 20/31/31 18/32/32
f 9/33/33 3/34/34 10/36/36
f 10/36/36 3/34/34 4/35/35
f 1/37/37 7/38/38 2/40/40
f 2/40/40 7/38/38 8/39/39
f 3/41/41 1/42/42 4/44/44
f 4/44/44 1/42/42 2/43/43
f 2/46/46 8/47/47 4/45/45
f 4/45/45 8/47/47 10/48/48
f 3/50/50 9/51/51 1/49/49
f 1/49/49 9/51/51 7/52/52
f 13/53/53 15/54/54 17/56/56
f 17/56/56 15/54/54 19/55/55
f 13/58/58 17/59/59 14/57/57
f 14/57/57 17/59/59 18/60/60
f 14/62/62 18/63/63 16/61/61
f 16/61/61 18/63/63 20/64/64
f 15/65/65 16/66/66 19/68/68
f 19/68/68 16/66/66 20/67/67

# 20 vertices
# 68 texture params
# 68 normals
# 36 facets

# 1 groups
