# WaveFront *.obj file (generated by Autodesk ATF)
#max 4
mtllib board11.mtl

g å®ä½“1

v 0.000000 0.000000 -50.000000
v 0.000000 0.000000 50.000000
v 0.000000 100.000000 -50.000000
v 0.000000 100.000000 50.000000
v 500.000000 0.000000 -1000.000000
v 500.000000 0.000000 -50.000000
v 500.000000 0.000000 50.000000
v 500.000000 0.000000 1000.000000
v 500.000000 100.000000 -1000.000000
v 500.000000 100.000000 -50.000000
v 500.000000 100.000000 50.000000
v 500.000000 100.000000 1000.000000
v 2500.000000 0.000000 -1000.000000
v 2500.000000 0.000000 1000.000000
v 2500.000000 100.000000 -1000.000000
v 2500.000000 100.000000 1000.000000
v 4500.000000 2100.000000 -1000.000000
v 4500.000000 2100.000000 1000.000000
v 4500.000000 2200.000000 -1000.000000
v 4500.000000 2200.000000 1000.000000
v 10500.000000 2100.000000 -1000.000000
v 10500.000000 2100.000000 1000.000000
v 10500.000000 2200.000000 -1000.000000
v 10500.000000 2200.000000 1000.000000
vt 0.000000 0.000000 0.000000
vt 10.000000 0.000000 0.000000
vt 10.000000 200.000000 0.000000
vt -200.000000 400.000000 0.000000
vt -200.000000 1000.000000 0.000000
vt -210.000000 1000.000000 0.000000
vt -210.000000 400.000000 0.000000
vt 0.000000 200.000000 0.000000
vt 0.000000 0.000000 0.000000
vt 10.000000 0.000000 0.000000
vt 10.000000 10.000000 0.000000
vt 0.000000 10.000000 0.000000
vt 0.000000 0.000000 0.000000
vt 10.000000 0.000000 0.000000
vt 10.000000 200.000000 0.000000
vt 220.000000 400.000000 0.000000
vt 220.000000 1000.000000 0.000000
vt 210.000000 1000.000000 0.000000
vt 210.000000 400.000000 0.000000
vt 0.000000 200.000000 0.000000
vt 0.000000 0.000000 0.000000
vt 50.000000 0.000000 0.000000
vt 50.000000 10.000000 0.000000
vt 0.000000 10.000000 0.000000
vt 0.000000 0.000000 0.000000
vt 50.000000 0.000000 0.000000
vt 50.000000 10.000000 0.000000
vt 0.000000 10.000000 0.000000
vt 5.000000 5.000000 0.000000
vt 5.000000 -5.000000 0.000000
vt 100.000000 -5.000000 0.000000
vt 100.000000 5.000000 0.000000
vt -5.000000 25.000000 0.000000
vt -5.000000 -25.000000 0.000000
vt 5.000000 -25.000000 0.000000
vt 5.000000 25.000000 0.000000
vt 100.000000 25.000000 0.000000
vt 100.000000 225.000000 0.000000
vt -100.000000 225.000000 0.000000
vt -100.000000 25.000000 0.000000
vt -5.000000 25.000000 0.000000
vt -5.000000 -25.000000 0.000000
vt 5.000000 -25.000000 0.000000
vt 5.000000 25.000000 0.000000
vt 100.000000 25.000000 0.000000
vt 100.000000 225.000000 0.000000
vt -100.000000 225.000000 0.000000
vt -100.000000 25.000000 0.000000
vt -200.000000 0.000000 0.000000
vt -0.000000 0.000000 0.000000
vt -0.000000 290.000000 0.000000
vt -200.000000 290.000000 0.000000
vt -5.000000 -5.000000 0.000000
vt -5.000000 5.000000 0.000000
vt -100.000000 5.000000 0.000000
vt -100.000000 -5.000000 0.000000
vt -200.000000 0.000000 0.000000
vt -0.000000 0.000000 0.000000
vt -0.000000 290.000000 0.000000
vt -200.000000 290.000000 0.000000
vt -100.000000 5.000000 0.000000
vt -100.000000 -5.000000 0.000000
vt 100.000000 -5.000000 0.000000
vt 100.000000 5.000000 0.000000
vt 0.000000 0.000000 0.000000
vt 200.000000 0.000000 0.000000
vt 200.000000 600.000000 0.000000
vt 0.000000 600.000000 0.000000
vt 0.000000 0.000000 0.000000
vt 200.000000 0.000000 0.000000
vt 200.000000 600.000000 0.000000
vt 0.000000 600.000000 0.000000
vn 0.000000 0.000000 0.100000
vn 0.000000 0.000000 0.100000
vn 0.000000 0.000000 0.100000
vn 0.000000 0.000000 0.100000
vn 0.000000 0.000000 0.100000
vn 0.000000 0.000000 0.100000
vn 0.000000 0.000000 0.100000
vn 0.000000 0.000000 0.100000
vn -0.100000 0.000000 0.000000
vn -0.100000 0.000000 0.000000
vn -0.100000 0.000000 0.000000
vn -0.100000 0.000000 0.000000
vn 0.000000 0.000000 -0.100000
vn 0.000000 0.000000 -0.100000
vn 0.000000 0.000000 -0.100000
vn 0.000000 0.000000 -0.100000
vn 0.000000 0.000000 -0.100000
vn 0.000000 0.000000 -0.100000
vn 0.000000 0.000000 -0.100000
vn 0.000000 0.000000 -0.100000
vn 0.000000 0.000000 0.100000
vn 0.000000 0.000000 0.100000
vn 0.000000 0.000000 0.100000
vn 0.000000 0.000000 0.100000
vn 0.000000 0.000000 -0.100000
vn 0.000000 0.000000 -0.100000
vn 0.000000 0.000000 -0.100000
vn 0.000000 0.000000 -0.100000
vn -0.100000 0.000000 0.000000
vn -0.100000 0.000000 0.000000
vn -0.100000 0.000000 0.000000
vn -0.100000 0.000000 0.000000
vn 0.000000 0.100000 0.000000
vn 0.000000 0.100000 0.000000
vn 0.000000 0.100000 0.000000
vn 0.000000 0.100000 0.000000
vn 0.000000 0.100000 0.000000
vn 0.000000 0.100000 0.000000
vn 0.000000 0.100000 0.000000
vn 0.000000 0.100000 0.000000
vn 0.000000 -0.100000 0.000000
vn 0.000000 -0.100000 0.000000
vn 0.000000 -0.100000 0.000000
vn 0.000000 -0.100000 0.000000
vn 0.000000 -0.100000 0.000000
vn 0.000000 -0.100000 0.000000
vn 0.000000 -0.100000 0.000000
vn 0.000000 -0.100000 0.000000
vn -0.072414 0.068966 0.000000
vn -0.072414 0.068966 0.000000
vn -0.072414 0.068966 0.000000
vn -0.072414 0.068966 0.000000
vn -0.100000 0.000000 0.000000
vn -0.100000 0.000000 0.000000
vn -0.100000 0.000000 0.000000
vn -0.100000 0.000000 0.000000
vn 0.072414 -0.068966 0.000000
vn 0.072414 -0.068966 0.000000
vn 0.072414 -0.068966 0.000000
vn 0.072414 -0.068966 0.000000
vn 0.100000 0.000000 0.000000
vn 0.100000 0.000000 0.000000
vn 0.100000 0.000000 0.000000
vn 0.100000 0.000000 0.000000
vn 0.000000 -0.100000 0.000000
vn 0.000000 -0.100000 0.000000
vn 0.000000 -0.100000 0.000000
vn 0.000000 -0.100000 0.000000
vn 0.000000 0.100000 0.000000
vn 0.000000 0.100000 0.000000
vn 0.000000 0.100000 0.000000
vn 0.000000 0.100000 0.000000
usemtl 191,191,191
f 12/1/1 8/2/2 16/8/8
f 16/8/8 8/2/2 14/3/3
f 16/8/8 14/3/3 18/4/4
f 22/5/5 24/6/6 18/4/4
f 18/4/4 24/6/6 20/7/7
f 18/4/4 20/7/7 16/8/8
f 1/9/9 2/10/10 3/12/12
f 3/12/12 2/10/10 4/11/11
f 5/13/13 9/14/14 13/20/20
f 13/20/20 9/14/14 15/15/15
f 13/20/20 15/15/15 17/19/19
f 17/19/19 15/15/15 19/16/16
f 17/19/19 19/16/16 21/18/18
f 21/18/18 19/16/16 23/17/17
f 2/21/21 7/22/22 4/24/24
f 4/24/24 7/22/22 11/23/23
f 6/25/25 1/26/26 10/28/28
f 10/28/28 1/26/26 3/27/27
f 7/30/30 8/31/31 11/29/29
f 11/29/29 8/31/31 12/32/32
f 3/34/34 4/35/35 10/33/33
f 10/33/33 4/35/35 11/36/36
f 10/33/33 11/36/36 15/39/39
f 15/39/39 11/36/36 16/38/38
f 16/38/38 11/36/36 12/37/37
f 15/39/39 9/40/40 10/33/33
f 2/42/42 1/43/43 7/41/41
f 7/41/41 1/43/43 6/44/44
f 7/41/41 6/44/44 14/47/47
f 14/47/47 6/44/44 13/46/46
f 13/46/46 6/44/44 5/45/45
f 14/47/47 8/48/48 7/41/41
f 15/49/49 16/50/50 19/52/52
f 19/52/52 16/50/50 20/51/51
f 10/54/54 9/55/55 6/53/53
f 6/53/53 9/55/55 5/56/56
f 14/57/57 13/58/58 18/60/60
f 18/60/60 13/58/58 17/59/59
f 22/62/62 21/63/63 24/61/61
f 24/61/61 21/63/63 23/64/64
f 18/65/65 17/66/66 22/68/68
f 22/68/68 17/66/66 21/67/67
f 19/69/69 20/70/70 23/72/72
f 23/72/72 20/70/70 24/71/71

# 24 vertices
# 72 texture params
# 72 normals
# 44 facets

# 1 groups
