# WaveFront *.obj file (generated by Autodesk ATF)
#ass 1 3
#xyz 1414 1000 0
mtllib hub2.mtl

g å®ä½“1

v -1224.559937 0.000000 -706.999969
v -1224.559937 0.000000 706.999969
v -1224.559937 2000.000000 -706.999969
v -1224.559937 2000.000000 706.999969
v -497.735977 2000.000000 -47.528024
v -497.735977 2000.000000 47.528024
v -497.735977 3000.000000 -47.528024
v -497.735977 3000.000000 47.528024
v -479.746475 2000.000000 -140.866280
v -479.746475 2000.000000 140.866280
v -479.746475 3000.000000 -140.866280
v -479.746475 3000.000000 140.866280
v -444.417725 2000.000000 -229.113255
v -444.417725 2000.000000 229.113255
v -444.417725 3000.000000 -229.113255
v -444.417725 3000.000000 229.113255
v -393.026543 2000.000000 -309.079494
v -393.026543 2000.000000 309.079494
v -393.026543 3000.000000 -309.079494
v -393.026543 3000.000000 309.079494
v -327.430382 2000.000000 -377.874794
v -327.430382 2000.000000 377.874794
v -327.430382 3000.000000 -377.874794
v -327.430382 3000.000000 377.874794
v -250.000000 2000.000000 -433.012695
v -250.000000 2000.000000 433.012695
v -250.000000 3000.000000 -433.012695
v -250.000000 3000.000000 433.012695
v -163.533974 2000.000000 -472.500420
v -163.533974 2000.000000 472.500420
v -163.533974 3000.000000 -472.500420
v -163.533974 3000.000000 472.500420
v -71.157417 2000.000000 -494.910736
v -71.157417 2000.000000 494.910736
v -71.157417 3000.000000 -494.910736
v -71.157417 3000.000000 494.910736
v 0.000000 0.000000 -1413.999939
v 0.000000 0.000000 1413.999939
v 0.000000 2000.000000 -1413.999939
v 0.000000 2000.000000 1413.999939
v 23.790958 2000.000000 -499.433670
v 23.790958 2000.000000 499.433670
v 23.790958 3000.000000 -499.433670
v 23.790958 3000.000000 499.433670
v 117.879467 2000.000000 -485.905800
v 117.879467 2000.000000 485.905800
v 117.879467 3000.000000 -485.905800
v 117.879467 3000.000000 485.905800
v 207.707500 2000.000000 -454.815979
v 207.707500 2000.000000 454.815979
v 207.707500 3000.000000 -454.815979
v 207.707500 3000.000000 454.815979
v 290.028458 2000.000000 -407.287979
v 290.028458 2000.000000 407.287979
v 290.028458 3000.000000 -407.287979
v 290.028458 3000.000000 407.287979
v 361.867027 2000.000000 -345.039520
v 361.867027 2000.000000 345.039520
v 361.867027 3000.000000 -345.039520
v 361.867027 3000.000000 345.039520
v 420.626755 2000.000000 -270.320415
v 420.626755 2000.000000 270.320415
v 420.626755 3000.000000 -270.320415
v 420.626755 3000.000000 270.320415
v 464.183960 2000.000000 -185.831223
v 464.183960 2000.000000 185.831223
v 464.183960 3000.000000 -185.831223
v 464.183960 3000.000000 185.831223
v 490.964355 2000.000000 -94.625626
v 490.964355 2000.000000 94.625626
v 490.964355 3000.000000 -94.625626
v 490.964355 3000.000000 94.625626
v 500.000000 2000.000000 0.000000
v 500.000000 3000.000000 0.000000
v 1224.559937 0.000000 -706.999969
v 1224.559937 0.000000 706.999969
v 1224.559937 2000.000000 -706.999969
v 1224.559937 2000.000000 706.999969
vt 0.000000 0.000000 0.000000
vt 141.399994 0.000000 0.000000
vt 141.399994 200.000000 0.000000
vt 0.000000 200.000000 0.000000
vt 0.000000 0.000000 0.000000
vt 141.399994 0.000000 0.000000
vt 141.399994 200.000000 0.000000
vt 0.000000 200.000000 0.000000
vt 0.000000 0.000000 0.000000
vt 141.399994 0.000000 0.000000
vt 141.399994 200.000000 0.000000
vt 0.000000 200.000000 0.000000
vt 0.000000 0.000000 0.000000
vt 141.399994 0.000000 0.000000
vt 141.399994 200.000000 0.000000
vt 0.000000 200.000000 0.000000
vt 0.000000 0.000000 0.000000
vt 141.399994 0.000000 0.000000
vt 141.399994 200.000000 0.000000
vt 0.000000 200.000000 0.000000
vt 0.000000 0.000000 0.000000
vt 141.399994 0.000000 0.000000
vt 141.399994 200.000000 0.000000
vt 0.000000 200.000000 0.000000
vt 0.000000 50.000000 0.000000
vt 9.462563 49.096436 0.000000
vt 18.583122 46.418396 0.000000
vt 27.032042 42.062675 0.000000
vt 34.503952 36.186703 0.000000
vt 40.728798 29.002846 0.000000
vt 45.481598 20.770750 0.000000
vt 48.590580 11.787947 0.000000
vt 49.943367 2.379096 0.000000
vt 49.491074 -7.115742 0.000000
vt 47.250042 -16.353397 0.000000
vt 43.301270 -25.000000 0.000000
vt 37.787479 -32.743038 0.000000
vt 30.907949 -39.302654 0.000000
vt 22.911325 -44.441772 0.000000
vt 14.086628 -47.974648 0.000000
vt 4.752802 -49.773598 0.000000
vt -4.752802 -49.773598 0.000000
vt -14.086628 -47.974648 0.000000
vt -22.911325 -44.441772 0.000000
vt -30.907949 -39.302654 0.000000
vt -37.787479 -32.743038 0.000000
vt -43.301270 -25.000000 0.000000
vt -47.250042 -16.353397 0.000000
vt -49.491074 -7.115742 0.000000
vt -49.943367 2.379096 0.000000
vt -48.590580 11.787947 0.000000
vt -45.481598 20.770750 0.000000
vt -40.728798 29.002846 0.000000
vt -34.503952 36.186703 0.000000
vt -27.032042 42.062675 0.000000
vt -18.583122 46.418396 0.000000
vt -9.462563 49.096436 0.000000
vt -141.399994 0.000000 0.000000
vt -70.699997 -122.455994 0.000000
vt 70.699997 -122.455994 0.000000
vt 141.399994 0.000000 0.000000
vt 70.699997 122.455994 0.000000
vt -70.699997 122.455994 0.000000
vt 70.699997 -122.455994 0.000000
vt 141.399994 0.000000 0.000000
vt 70.699997 122.455994 0.000000
vt -70.699997 122.455994 0.000000
vt -141.399994 0.000000 0.000000
vt -70.699997 -122.455994 0.000000
vt -100.000000 0.000000 0.000000
vt -100.000000 -9.519978 0.000000
vt -100.000000 -19.039955 0.000000
vt -100.000000 -28.559933 0.000000
vt -100.000000 -38.079910 0.000000
vt -100.000000 -47.599888 0.000000
vt -100.000000 -57.119865 0.000000
vt -100.000000 -66.639847 0.000000
vt -100.000000 -76.159821 0.000000
vt -100.000000 -85.679802 0.000000
vt -100.000000 -95.199776 0.000000
vt -100.000000 -104.719757 0.000000
vt -100.000000 -114.239731 0.000000
vt -100.000000 -123.759712 0.000000
vt -100.000000 -133.279694 0.000000
vt -100.000000 -142.799667 0.000000
vt -100.000000 -152.319641 0.000000
vt -100.000000 152.319641 0.000000
vt -100.000000 142.799667 0.000000
vt -100.000000 133.279694 0.000000
vt -100.000000 123.759712 0.000000
vt -100.000000 114.239731 0.000000
vt -100.000000 104.719757 0.000000
vt -100.000000 95.199776 0.000000
vt -100.000000 85.679802 0.000000
vt -100.000000 76.159821 0.000000
vt -100.000000 66.639847 0.000000
vt -100.000000 57.119865 0.000000
vt -100.000000 47.599888 0.000000
vt -100.000000 38.079910 0.000000
vt -100.000000 28.559933 0.000000
vt -100.000000 19.039955 0.000000
vt -100.000000 9.519978 0.000000
vt -0.000000 0.000000 0.000000
vt -0.000000 9.519978 0.000000
vt -0.000000 19.039955 0.000000
vt -0.000000 28.559933 0.000000
vt -0.000000 38.079910 0.000000
vt -0.000000 47.599888 0.000000
vt -0.000000 57.119865 0.000000
vt -0.000000 66.639847 0.000000
vt -0.000000 76.159821 0.000000
vt -0.000000 85.679802 0.000000
vt -0.000000 95.199776 0.000000
vt -0.000000 104.719757 0.000000
vt -0.000000 114.239731 0.000000
vt -0.000000 123.759712 0.000000
vt -0.000000 133.279694 0.000000
vt -0.000000 142.799667 0.000000
vt -0.000000 -161.839615 0.000000
vt -0.000000 -152.319641 0.000000
vt -0.000000 -142.799667 0.000000
vt -0.000000 -133.279694 0.000000
vt -0.000000 -123.759712 0.000000
vt -0.000000 -114.239731 0.000000
vt -0.000000 -104.719757 0.000000
vt -0.000000 -95.199776 0.000000
vt -0.000000 -85.679802 0.000000
vt -0.000000 -76.159821 0.000000
vt -0.000000 -66.639847 0.000000
vt -0.000000 -57.119865 0.000000
vt -0.000000 -47.599888 0.000000
vt -0.000000 -38.079910 0.000000
vt -0.000000 -28.559933 0.000000
vt -0.000000 -19.039955 0.000000
vt -0.000000 -9.519978 0.000000
vt -100.000000 -161.839630 0.000000
vt -100.000000 -161.839630 0.000000
vt -0.000000 152.319656 0.000000
vt -0.000000 152.319656 0.000000
vt 0.000000 50.000000 0.000000
vt -9.462563 49.096436 0.000000
vt -18.583122 46.418396 0.000000
vt -27.032042 42.062675 0.000000
vt -34.503952 36.186703 0.000000
vt -40.728798 29.002846 0.000000
vt -45.481598 20.770750 0.000000
vt -48.590580 11.787947 0.000000
vt -49.943367 2.379096 0.000000
vt -49.491074 -7.115742 0.000000
vt -47.250042 -16.353397 0.000000
vt -43.301270 -25.000000 0.000000
vt -37.787479 -32.743038 0.000000
vt -30.907949 -39.302654 0.000000
vt -22.911325 -44.441772 0.000000
vt -14.086628 -47.974648 0.000000
vt -4.752802 -49.773598 0.000000
vt 4.752802 -49.773598 0.000000
vt 14.086628 -47.974648 0.000000
vt 22.911325 -44.441772 0.000000
vt 30.907949 -39.302654 0.000000
vt 37.787479 -32.743038 0.000000
vt 43.301270 -25.000000 0.000000
vt 47.250042 -16.353397 0.000000
vt 49.491074 -7.115742 0.000000
vt 49.943367 2.379096 0.000000
vt 48.590580 11.787947 0.000000
vt 45.481598 20.770750 0.000000
vt 40.728798 29.002846 0.000000
vt 34.503952 36.186703 0.000000
vt 27.032042 42.062675 0.000000
vt 18.583122 46.418396 0.000000
vt 9.462563 49.096436 0.000000
vn 0.050000 0.000000 -0.086603
vn 0.050000 0.000000 -0.086603
vn 0.050000 0.000000 -0.086603
vn 0.050000 0.000000 -0.086603
vn 0.100000 0.000000 0.000000
vn 0.100000 0.000000 0.000000
vn 0.100000 0.000000 0.000000
vn 0.100000 0.000000 0.000000
vn 0.050000 0.000000 0.086603
vn 0.050000 0.000000 0.086603
vn 0.050000 0.000000 0.086603
vn 0.050000 0.000000 0.086603
vn -0.050000 0.000000 0.086603
vn -0.050000 0.000000 0.086603
vn -0.050000 0.000000 0.086603
vn -0.050000 0.000000 0.086603
vn -0.100000 0.000000 0.000000
vn -0.100000 0.000000 0.000000
vn -0.100000 0.000000 0.000000
vn -0.100000 0.000000 0.000000
vn -0.050000 0.000000 -0.086603
vn -0.050000 0.000000 -0.086603
vn -0.050000 0.000000 -0.086603
vn -0.050000 0.000000 -0.086603
vn 0.000000 0.100000 0.000000
vn 0.000000 0.100000 0.000000
vn 0.000000 0.100000 0.000000
vn 0.000000 0.100000 0.000000
vn 0.000000 0.100000 0.000000
vn 0.000000 0.100000 0.000000
vn 0.000000 0.100000 0.000000
vn 0.000000 0.100000 0.000000
vn 0.000000 0.100000 0.000000
vn 0.000000 0.100000 0.000000
vn 0.000000 0.100000 0.000000
vn 0.000000 0.100000 0.000000
vn 0.000000 0.100000 0.000000
vn 0.000000 0.100000 0.000000
vn 0.000000 0.100000 0.000000
vn 0.000000 0.100000 0.000000
vn 0.000000 0.100000 0.000000
vn 0.000000 0.100000 0.000000
vn 0.000000 0.100000 0.000000
vn 0.000000 0.100000 0.000000
vn 0.000000 0.100000 0.000000
vn 0.000000 0.100000 0.000000
vn 0.000000 0.100000 0.000000
vn 0.000000 0.100000 0.000000
vn 0.000000 0.100000 0.000000
vn 0.000000 0.100000 0.000000
vn 0.000000 0.100000 0.000000
vn 0.000000 0.100000 0.000000
vn 0.000000 0.100000 0.000000
vn 0.000000 0.100000 0.000000
vn 0.000000 0.100000 0.000000
vn 0.000000 0.100000 0.000000
vn 0.000000 0.100000 0.000000
vn 0.000000 0.100000 0.000000
vn 0.000000 0.100000 0.000000
vn 0.000000 0.100000 0.000000
vn 0.000000 0.100000 0.000000
vn 0.000000 0.100000 0.000000
vn 0.000000 0.100000 0.000000
vn 0.000000 -0.100000 0.000000
vn 0.000000 -0.100000 0.000000
vn 0.000000 -0.100000 0.000000
vn 0.000000 -0.100000 0.000000
vn 0.000000 -0.100000 0.000000
vn 0.000000 -0.100000 0.000000
vn 0.100000 0.000000 0.000000
vn 0.098193 0.000000 0.018925
vn 0.092837 0.000000 0.037166
vn 0.084125 0.000000 0.054064
vn 0.072373 0.000000 0.069008
vn 0.058006 0.000000 0.081458
vn 0.041542 0.000000 0.090963
vn 0.023576 0.000000 0.097181
vn 0.004758 0.000000 0.099887
vn -0.014231 0.000000 0.098982
vn -0.032707 0.000000 0.094500
vn -0.050000 0.000000 0.086603
vn -0.065486 0.000000 0.075575
vn -0.078605 0.000000 0.061816
vn -0.088884 0.000000 0.045823
vn -0.095949 0.000000 0.028173
vn -0.099547 0.000000 0.009506
vn -0.099547 0.000000 -0.009506
vn -0.095949 0.000000 -0.028173
vn -0.088884 0.000000 -0.045823
vn -0.078605 0.000000 -0.061816
vn -0.065486 0.000000 -0.075575
vn -0.050000 0.000000 -0.086603
vn -0.032707 0.000000 -0.094500
vn -0.014231 0.000000 -0.098982
vn 0.004758 0.000000 -0.099887
vn 0.023576 0.000000 -0.097181
vn 0.041542 0.000000 -0.090963
vn 0.058006 0.000000 -0.081458
vn 0.072373 0.000000 -0.069008
vn 0.084125 0.000000 -0.054064
vn 0.092837 0.000000 -0.037166
vn 0.098193 0.000000 -0.018925
vn 0.100000 0.000000 0.000000
vn 0.098193 0.000000 -0.018925
vn 0.092837 0.000000 -0.037166
vn 0.084125 0.000000 -0.054064
vn 0.072373 0.000000 -0.069008
vn 0.058006 0.000000 -0.081458
vn 0.041542 0.000000 -0.090963
vn 0.023576 0.000000 -0.097181
vn 0.004758 0.000000 -0.099887
vn -0.014231 0.000000 -0.098982
vn -0.032707 0.000000 -0.094500
vn -0.050000 0.000000 -0.086603
vn -0.065486 0.000000 -0.075575
vn -0.078605 0.000000 -0.061816
vn -0.088884 0.000000 -0.045823
vn -0.095949 0.000000 -0.028173
vn -0.099547 0.000000 -0.009506
vn -0.099547 0.000000 0.009506
vn -0.095949 0.000000 0.028173
vn -0.088884 0.000000 0.045823
vn -0.078605 0.000000 0.061816
vn -0.065486 0.000000 0.075575
vn -0.050000 0.000000 0.086603
vn -0.032707 0.000000 0.094500
vn -0.014231 0.000000 0.098982
vn 0.004758 0.000000 0.099887
vn 0.023576 0.000000 0.097181
vn 0.041542 0.000000 0.090963
vn 0.058006 0.000000 0.081458
vn 0.072373 0.000000 0.069008
vn 0.084125 0.000000 0.054064
vn 0.092837 0.000000 0.037166
vn 0.098193 0.000000 0.018925
vn -0.099547 0.000000 -0.009506
vn -0.099547 0.000000 -0.009506
vn -0.099547 0.000000 -0.009506
vn -0.099547 0.000000 -0.009506
vn 0.000000 0.100000 0.000000
vn 0.000000 0.100000 0.000000
vn 0.000000 0.100000 0.000000
vn 0.000000 0.100000 0.000000
vn 0.000000 0.100000 0.000000
vn 0.000000 0.100000 0.000000
vn 0.000000 0.100000 0.000000
vn 0.000000 0.100000 0.000000
vn 0.000000 0.100000 0.000000
vn 0.000000 0.100000 0.000000
vn 0.000000 0.100000 0.000000
vn 0.000000 0.100000 0.000000
vn 0.000000 0.100000 0.000000
vn 0.000000 0.100000 0.000000
vn 0.000000 0.100000 0.000000
vn 0.000000 0.100000 0.000000
vn 0.000000 0.100000 0.000000
vn 0.000000 0.100000 0.000000
vn 0.000000 0.100000 0.000000
vn 0.000000 0.100000 0.000000
vn 0.000000 0.100000 0.000000
vn 0.000000 0.100000 0.000000
vn 0.000000 0.100000 0.000000
vn 0.000000 0.100000 0.000000
vn 0.000000 0.100000 0.000000
vn 0.000000 0.100000 0.000000
vn 0.000000 0.100000 0.000000
vn 0.000000 0.100000 0.000000
vn 0.000000 0.100000 0.000000
vn 0.000000 0.100000 0.000000
vn 0.000000 0.100000 0.000000
vn 0.000000 0.100000 0.000000
vn 0.000000 0.100000 0.000000
usemtl 191,191,191
f 75/1/1 37/2/2 77/4/4
f 77/4/4 37/2/2 39/3/3
f 76/5/5 75/6/6 78/8/8
f 78/8/8 75/6/6 77/7/7
f 38/9/9 76/10/10 40/12/12
f 40/12/12 76/10/10 78/11/11
f 2/13/13 38/14/14 4/16/16
f 4/16/16 38/14/14 40/15/15
f 1/17/17 2/18/18 3/20/20
f 3/20/20 2/18/18 4/19/19
f 37/21/21 1/22/22 39/24/24
f 39/24/24 1/22/22 3/23/23
f 70/26/26 78/62/62 73/25/25
f 73/25/25 78/62/62 77/63/63
f 73/25/25 77/63/63 69/57/57
f 69/57/57 77/63/63 65/56/56
f 65/56/56 77/63/63 61/55/55
f 61/55/55 77/63/63 57/54/54
f 57/54/54 77/63/63 53/53/53
f 53/53/53 77/63/63 39/58/58
f 53/53/53 39/58/58 49/52/52
f 49/52/52 39/58/58 45/51/51
f 45/51/51 39/58/58 41/50/50
f 41/50/50 39/58/58 33/49/49
f 33/49/49 39/58/58 29/48/48
f 29/48/48 39/58/58 25/47/47
f 25/47/47 39/58/58 3/59/59
f 25/47/47 3/59/59 21/46/46
f 21/46/46 3/59/59 17/45/45
f 17/45/45 3/59/59 13/44/44
f 13/44/44 3/59/59 9/43/43
f 9/43/43 3/59/59 5/42/42
f 5/42/42 3/59/59 4/60/60
f 5/42/42 4/60/60 6/41/41
f 6/41/41 4/60/60 10/40/40
f 10/40/40 4/60/60 14/39/39
f 14/39/39 4/60/60 18/38/38
f 18/38/38 4/60/60 22/37/37
f 22/37/37 4/60/60 26/36/36
f 26/36/36 4/60/60 40/61/61
f 26/36/36 40/61/61 30/35/35
f 30/35/35 40/61/61 34/34/34
f 34/34/34 40/61/61 42/33/33
f 42/33/33 40/61/61 46/32/32
f 46/32/32 40/61/61 50/31/31
f 50/31/31 40/61/61 54/30/30
f 54/30/30 40/61/61 78/62/62
f 54/30/30 78/62/62 58/29/29
f 58/29/29 78/62/62 62/28/28
f 62/28/28 78/62/62 66/27/27
f 66/27/27 78/62/62 70/26/26
f 2/69/69 1/64/64 38/68/68
f 38/68/68 1/64/64 37/65/65
f 38/68/68 37/65/65 76/67/67
f 76/67/67 37/65/65 75/66/66
f 72/71/71 70/135/135 74/70/70
f 74/70/70 70/135/135 73/103/103
f 74/70/70 73/103/103 71/102/102
f 71/102/102 73/103/103 69/104/104
f 71/102/102 69/104/104 65/105/105
f 72/71/71 68/72/72 70/135/135
f 70/135/135 68/72/72 66/134/134
f 66/134/134 68/72/72 64/73/73
f 66/134/134 64/73/73 62/133/133
f 62/133/133 64/73/73 60/74/74
f 62/133/133 60/74/74 58/132/132
f 58/132/132 60/74/74 56/75/75
f 58/132/132 56/75/75 54/131/131
f 54/131/131 56/75/75 52/76/76
f 54/131/131 52/76/76 50/130/130
f 50/130/130 52/76/76 48/77/77
f 50/130/130 48/77/77 46/129/129
f 46/129/129 48/77/77 44/78/78
f 46/129/129 44/78/78 42/128/128
f 42/128/128 44/78/78 36/79/79
f 42/128/128 36/79/79 34/127/127
f 34/127/127 36/79/79 32/80/80
f 34/127/127 32/80/80 30/126/126
f 30/126/126 32/80/80 28/81/81
f 30/126/126 28/81/81 26/125/125
f 26/125/125 28/81/81 24/82/82
f 26/125/125 24/82/82 22/124/124
f 22/124/124 24/82/82 20/83/83
f 22/124/124 20/83/83 18/123/123
f 18/123/123 20/83/83 16/84/84
f 18/123/123 16/84/84 14/122/122
f 14/122/122 16/84/84 12/85/85
f 14/122/122 12/85/85 10/121/121
f 10/121/121 12/85/85 8/86/86
f 10/121/121 8/86/86 6/120/120
f 6/120/120 8/86/86 7/136/136
f 6/120/120 7/137/137 5/119/119
f 5/138/138 7/87/87 11/88/88
f 5/139/139 11/88/88 9/118/118
f 9/118/118 11/88/88 15/89/89
f 9/118/118 15/89/89 13/117/117
f 13/117/117 15/89/89 19/90/90
f 13/117/117 19/90/90 17/116/116
f 17/116/116 19/90/90 23/91/91
f 17/116/116 23/91/91 21/115/115
f 21/115/115 23/91/91 27/92/92
f 21/115/115 27/92/92 25/114/114
f 25/114/114 27/92/92 31/93/93
f 25/114/114 31/93/93 29/113/113
f 29/113/113 31/93/93 35/94/94
f 29/113/113 35/94/94 33/112/112
f 33/112/112 35/94/94 43/95/95
f 33/112/112 43/95/95 41/111/111
f 41/111/111 43/95/95 47/96/96
f 41/111/111 47/96/96 45/110/110
f 45/110/110 47/96/96 51/97/97
f 45/110/110 51/97/97 49/109/109
f 49/109/109 51/97/97 55/98/98
f 49/109/109 55/98/98 53/108/108
f 53/108/108 55/98/98 59/99/99
f 53/108/108 59/99/99 57/107/107
f 57/107/107 59/99/99 63/100/100
f 57/107/107 63/100/100 61/106/106
f 61/106/106 63/100/100 67/101/101
f 61/106/106 67/101/101 65/105/105
f 65/105/105 67/101/101 71/102/102
f 74/140/140 71/141/141 72/172/172
f 72/172/172 71/141/141 68/171/171
f 68/171/171 71/141/141 67/142/142
f 68/171/171 67/142/142 64/170/170
f 64/170/170 67/142/142 63/143/143
f 64/170/170 63/143/143 60/169/169
f 60/169/169 63/143/143 59/144/144
f 60/169/169 59/144/144 56/168/168
f 56/168/168 59/144/144 55/145/145
f 56/168/168 55/145/145 52/167/167
f 52/167/167 55/145/145 51/146/146
f 52/167/167 51/146/146 48/166/166
f 48/166/166 51/146/146 47/147/147
f 48/166/166 47/147/147 44/165/165
f 44/165/165 47/147/147 43/148/148
f 44/165/165 43/148/148 36/164/164
f 36/164/164 43/148/148 35/149/149
f 36/164/164 35/149/149 32/163/163
f 32/163/163 35/149/149 31/150/150
f 32/163/163 31/150/150 28/162/162
f 28/162/162 31/150/150 27/151/151
f 28/162/162 27/151/151 24/161/161
f 24/161/161 27/151/151 23/152/152
f 24/161/161 23/152/152 20/160/160
f 20/160/160 23/152/152 19/153/153
f 20/160/160 19/153/153 16/159/159
f 16/159/159 19/153/153 15/154/154
f 16/159/159 15/154/154 12/158/158
f 12/158/158 15/154/154 11/155/155
f 12/158/158 11/155/155 8/157/157
f 8/157/157 11/155/155 7/156/156

# 78 vertices
# 172 texture params
# 172 normals
# 152 facets

# 1 groups
