# WaveFront *.obj file (generated by Autodesk ATF)
#ass 1 2 4
#xyz 1050 1000 0
mtllib hub3.mtl

g å®ä½“1

v -1050.000000 0.000000 -1050.000000
v -1050.000000 0.000000 1050.000000
v -1050.000000 3000.000000 -1050.000000
v -1050.000000 3000.000000 1050.000000
v 1050.000000 0.000000 -1050.000000
v 1050.000000 0.000000 1050.000000
v 1050.000000 3000.000000 -1050.000000
v 1050.000000 3000.000000 1050.000000
vt 0.000000 0.000000 0.000000
vt 210.000000 0.000000 0.000000
vt 210.000000 300.000000 0.000000
vt 0.000000 300.000000 0.000000
vt 0.000000 0.000000 0.000000
vt 210.000000 0.000000 0.000000
vt 210.000000 300.000000 0.000000
vt 0.000000 300.000000 0.000000
vt 0.000000 0.000000 0.000000
vt 210.000000 0.000000 0.000000
vt 210.000000 300.000000 0.000000
vt 0.000000 300.000000 0.000000
vt 0.000000 0.000000 0.000000
vt 210.000000 0.000000 0.000000
vt 210.000000 300.000000 0.000000
vt 0.000000 300.000000 0.000000
vt -105.000000 -105.000000 0.000000
vt 105.000000 -105.000000 0.000000
vt 105.000000 105.000000 0.000000
vt -105.000000 105.000000 0.000000
vt -105.000000 -105.000000 0.000000
vt 105.000000 -105.000000 0.000000
vt 105.000000 105.000000 0.000000
vt -105.000000 105.000000 0.000000
vn 0.000000 0.000000 -0.100000
vn 0.000000 0.000000 -0.100000
vn 0.000000 0.000000 -0.100000
vn 0.000000 0.000000 -0.100000
vn 0.100000 0.000000 0.000000
vn 0.100000 0.000000 0.000000
vn 0.100000 0.000000 0.000000
vn 0.100000 0.000000 0.000000
vn 0.000000 0.000000 0.100000
vn 0.000000 0.000000 0.100000
vn 0.000000 0.000000 0.100000
vn 0.000000 0.000000 0.100000
vn -0.100000 0.000000 0.000000
vn -0.100000 0.000000 0.000000
vn -0.100000 0.000000 0.000000
vn -0.100000 0.000000 0.000000
vn 0.000000 0.100000 0.000000
vn 0.000000 0.100000 0.000000
vn 0.000000 0.100000 0.000000
vn 0.000000 0.100000 0.000000
vn 0.000000 -0.100000 0.000000
vn 0.000000 -0.100000 0.000000
vn 0.000000 -0.100000 0.000000
vn 0.000000 -0.100000 0.000000
usemtl 191,191,191
f 5/1/1 1/2/2 7/4/4
f 7/4/4 1/2/2 3/3/3
f 6/5/5 5/6/6 8/8/8
f 8/8/8 5/6/6 7/7/7
f 2/9/9 6/10/10 4/12/12
f 4/12/12 6/10/10 8/11/11
f 1/13/13 2/14/14 3/16/16
f 3/16/16 2/14/14 4/15/15
f 3/17/17 4/18/18 7/20/20
f 7/20/20 4/18/18 8/19/19
f 2/21/21 1/22/22 6/24/24
f 6/24/24 1/22/22 5/23/23

# 8 vertices
# 24 texture params
# 24 normals
# 12 facets

# 1 groups
