# WaveFront *.obj file (generated by Autodesk ATF)
#ass 1 2
#xyz 1500 1000 0
mtllib hub9.mtl

g 实体2

v -500.000000 896.999969 1000.000000
v -500.000000 896.999969 6000.000000
v -500.000000 1396.999969 1000.000000
v -500.000000 1396.999969 6000.000000
v 500.000000 896.999969 1000.000000
v 500.000000 896.999969 6000.000000
v 500.000000 1396.999969 1000.000000
v 500.000000 1396.999969 6000.000000
vt 0.000000 0.000000 0.000000
vt 100.000000 0.000000 0.000000
vt 100.000000 500.000000 0.000000
vt 0.000000 500.000000 0.000000
vt 0.000000 0.000000 0.000000
vt 50.000000 0.000000 0.000000
vt 50.000000 500.000000 0.000000
vt 0.000000 500.000000 0.000000
vt 0.000000 0.000000 0.000000
vt 100.000000 0.000000 0.000000
vt 100.000000 500.000000 0.000000
vt 0.000000 500.000000 0.000000
vt 0.000000 0.000000 0.000000
vt 50.000000 0.000000 0.000000
vt 50.000000 500.000000 0.000000
vt 0.000000 500.000000 0.000000
vt -50.000000 25.000000 0.000000
vt -50.000000 -25.000000 0.000000
vt 50.000000 -25.000000 0.000000
vt 50.000000 25.000000 0.000000
vt 50.000000 -25.000000 0.000000
vt 50.000000 25.000000 0.000000
vt -50.000000 25.000000 0.000000
vt -50.000000 -25.000000 0.000000
vn 0.000000 0.100000 0.000000
vn 0.000000 0.100000 0.000000
vn 0.000000 0.100000 0.000000
vn 0.000000 0.100000 0.000000
vn 0.100000 0.000000 0.000000
vn 0.100000 0.000000 0.000000
vn 0.100000 0.000000 0.000000
vn 0.100000 0.000000 0.000000
vn 0.000000 -0.100000 0.000000
vn 0.000000 -0.100000 0.000000
vn 0.000000 -0.100000 0.000000
vn 0.000000 -0.100000 0.000000
vn -0.100000 0.000000 0.000000
vn -0.100000 0.000000 0.000000
vn -0.100000 0.000000 0.000000
vn -0.100000 0.000000 0.000000
vn 0.000000 0.000000 0.100000
vn 0.000000 0.000000 0.100000
vn 0.000000 0.000000 0.100000
vn 0.000000 0.000000 0.100000
vn 0.000000 0.000000 -0.100000
vn 0.000000 0.000000 -0.100000
vn 0.000000 0.000000 -0.100000
vn 0.000000 0.000000 -0.100000
usemtl 191,191,191
f 7/1/1 3/2/2 8/4/4
f 8/4/4 3/2/2 4/3/3
f 5/5/5 7/6/6 6/8/8
f 6/8/8 7/6/6 8/7/7
f 1/9/9 5/10/10 2/12/12
f 2/12/12 5/10/10 6/11/11
f 3/13/13 1/14/14 4/16/16
f 4/16/16 1/14/14 2/15/15
f 2/18/18 6/19/19 4/17/17
f 4/17/17 6/19/19 8/20/20
f 3/22/22 7/23/23 1/21/21
f 1/21/21 7/23/23 5/24/24

g 实体1

v 1000.000000 0.000000 1000.000000
v 2000.000000 0.000000 -1000.000000
v 1000.000000 3000.000000 1000.000000
v 2000.000000 3000.000000 -1000.000000
v -1000.000000 0.000000 1000.000000
v -1000.000000 3000.000000 1000.000000
v -2000.000000 0.000000 -1000.000000
v -2000.000000 3000.000000 -1000.000000
usemtl 191,191,191_1
f 9 10 11
f 11 10 12
f 13 9 14
f 14 9 11
f 15 13 16
f 16 13 14
f 10 15 12
f 12 15 16
f 12 16 11
f 11 16 14
f 10 9 15
f 15 9 13

# 16 vertices
# 24 texture params
# 24 normals
# 24 facets

# 2 groups
